<svg width="593" height="465" viewBox="0 0 593 465" fill="none" xmlns="http://www.w3.org/2000/svg"><path fill="#000" d="M0 0h593v465H0z"/><path d="M298.617 76.823 297 74.602l-1.617 2.22-211.31 290.251-2.313 3.177h430.48l-2.313-3.177-211.31-290.25Z" stroke="#fff" stroke-width="4"/><path stroke="#fff" stroke-width="4" d="M127 309h342"/><path stroke="#fff" stroke-width="4" d="M173 246h249"/><path stroke="#fff" stroke-width="4" d="M222 179h151"/><path d="M265.263 154h-1.977l3.012-8.727h2.378l3.009 8.727h-1.978l-2.186-6.733h-.068l-2.19 6.733Zm-.124-3.43h4.671v1.44h-4.671v-1.44Zm7.596 3.43v-8.727h1.815v3.281h.056c.079-.176.194-.355.345-.537.153-.185.352-.338.597-.46.247-.125.554-.188.92-.188.477 0 .918.125 1.321.375.403.247.726.621.967 1.121.242.497.363 1.121.363 1.871 0 .73-.118 1.346-.354 1.849-.233.5-.551.879-.955 1.138-.4.256-.849.384-1.346.384-.352 0-.652-.059-.899-.175a1.86 1.86 0 0 1-.601-.439 2.221 2.221 0 0 1-.358-.541h-.081V154h-1.79Zm1.777-3.273c0 .389.054.729.162 1.019.108.29.264.515.469.677.204.159.453.239.745.239.296 0 .546-.081.75-.243a1.51 1.51 0 0 0 .465-.682c.108-.292.162-.629.162-1.01 0-.378-.053-.71-.158-.997a1.487 1.487 0 0 0-.464-.673 1.179 1.179 0 0 0-.755-.243c-.295 0-.545.078-.75.234a1.48 1.48 0 0 0-.464.665 2.876 2.876 0 0 0-.162 1.014Zm10.015.486v-3.758h1.816V154H284.6v-1.189h-.068a1.933 1.933 0 0 1-.738.925c-.341.233-.757.349-1.248.349-.438 0-.823-.099-1.155-.298a2.06 2.06 0 0 1-.78-.848c-.185-.367-.278-.805-.281-1.317v-4.167h1.815v3.843c.003.387.107.692.311.916.205.225.479.337.823.337.219 0 .423-.05.613-.149a1.17 1.17 0 0 0 .461-.452c.119-.199.177-.444.174-.737Zm5.083-.997V154h-1.815v-6.545h1.73v1.154h.077c.144-.38.387-.681.728-.903.341-.224.755-.337 1.24-.337.455 0 .851.1 1.189.299.338.198.601.483.789.852.187.366.281.804.281 1.312V154h-1.816v-3.844c.003-.4-.099-.713-.306-.937-.208-.228-.493-.341-.857-.341-.244 0-.46.052-.648.158a1.098 1.098 0 0 0-.434.46 1.588 1.588 0 0 0-.158.72Zm8.062 3.891c-.498 0-.948-.128-1.351-.384-.401-.259-.719-.638-.955-1.138-.233-.503-.349-1.119-.349-1.849 0-.75.12-1.374.362-1.871.241-.5.562-.874.963-1.121.403-.25.845-.375 1.325-.375.367 0 .672.063.916.188.248.122.446.275.597.46.153.182.27.361.349.537h.056v-3.281h1.811V154h-1.79v-1.048h-.077a2.304 2.304 0 0 1-.362.541 1.797 1.797 0 0 1-.601.439c-.244.116-.542.175-.894.175Zm.575-1.445c.292 0 .54-.08.741-.239.205-.162.361-.387.469-.677.111-.29.166-.63.166-1.019 0-.389-.054-.727-.162-1.014a1.463 1.463 0 0 0-.468-.665 1.197 1.197 0 0 0-.746-.234c-.298 0-.55.081-.754.243-.205.162-.36.386-.465.673a2.893 2.893 0 0 0-.158.997c0 .381.053.718.158 1.01.108.29.263.517.465.682.204.162.456.243.754.243Zm6.508 1.462c-.418 0-.79-.073-1.117-.218a1.793 1.793 0 0 1-.775-.652c-.188-.29-.281-.65-.281-1.082 0-.364.066-.669.2-.916.133-.247.315-.446.545-.597a2.68 2.68 0 0 1 .785-.341c.295-.077.605-.13.928-.162.381-.04.688-.076.921-.111.233-.036.402-.09.507-.161a.359.359 0 0 0 .158-.316v-.025c0-.27-.086-.479-.256-.627-.168-.148-.406-.221-.716-.221-.327 0-.587.072-.78.217a.997.997 0 0 0-.383.537l-1.679-.137c.085-.397.253-.741.503-1.031.25-.292.572-.517.967-.673.398-.159.858-.239 1.381-.239.363 0 .711.043 1.044.128.335.085.632.217.89.396.262.179.468.41.618.691.151.278.226.612.226 1.001V154h-1.722v-.908h-.051a1.839 1.839 0 0 1-.422.542 1.954 1.954 0 0 1-.634.362 2.637 2.637 0 0 1-.857.128Zm.52-1.253c.267 0 .503-.053.707-.158.205-.108.365-.253.482-.435a1.12 1.12 0 0 0 .174-.617v-.695a.934.934 0 0 1-.234.102 3.752 3.752 0 0 1-.328.081c-.122.023-.244.044-.366.064l-.333.047a2.24 2.24 0 0 0-.558.149.896.896 0 0 0-.371.277.676.676 0 0 0-.132.426c0 .247.09.436.269.567.181.128.411.192.69.192Zm6.39-2.655V154h-1.816v-6.545h1.731v1.154h.076a1.83 1.83 0 0 1 .729-.903c.341-.224.754-.337 1.24-.337.455 0 .851.1 1.189.299.338.198.601.483.788.852.188.366.282.804.282 1.312V154h-1.816v-3.844c.003-.4-.099-.713-.307-.937-.207-.228-.493-.341-.856-.341-.244 0-.46.052-.648.158a1.1 1.1 0 0 0-.435.46 1.601 1.601 0 0 0-.157.72Zm8.607 3.912c-.671 0-1.247-.142-1.73-.426a2.875 2.875 0 0 1-1.108-1.193c-.256-.509-.384-1.094-.384-1.756 0-.671.129-1.259.388-1.764a2.875 2.875 0 0 1 1.112-1.189c.48-.287 1.051-.431 1.713-.431.571 0 1.071.104 1.5.311.429.208.769.499 1.019.874.25.375.387.815.413 1.321h-1.713c-.048-.327-.176-.589-.384-.788-.204-.202-.473-.303-.805-.303a1.22 1.22 0 0 0-.737.23c-.208.151-.37.371-.486.661-.117.289-.175.64-.175 1.052 0 .418.057.773.171 1.066.116.292.28.515.49.669.21.153.456.23.737.23a1.2 1.2 0 0 0 .558-.128c.168-.085.306-.209.414-.371a1.43 1.43 0 0 0 .217-.592h1.713c-.028.5-.165.94-.409 1.321a2.468 2.468 0 0 1-1.002.886c-.426.213-.93.32-1.512.32Zm7.068 0c-.673 0-1.253-.137-1.738-.409a2.803 2.803 0 0 1-1.117-1.168c-.261-.506-.392-1.104-.392-1.794 0-.673.131-1.264.392-1.773a2.902 2.902 0 0 1 1.104-1.189c.477-.284 1.037-.426 1.679-.426.432 0 .834.07 1.206.209.375.136.701.342.98.618.281.276.5.622.656 1.04.156.415.234.9.234 1.457v.499h-5.527v-1.125h3.819c0-.262-.057-.493-.171-.695a1.215 1.215 0 0 0-.473-.473 1.353 1.353 0 0 0-.694-.175c-.276 0-.52.064-.733.192a1.346 1.346 0 0 0-.495.507 1.44 1.44 0 0 0-.183.703v1.07c0 .324.06.604.179.84.122.235.294.417.516.545.221.128.484.192.788.192.202 0 .386-.029.554-.085a1.1 1.1 0 0 0 .703-.674l1.679.111c-.085.403-.26.756-.524 1.057a2.634 2.634 0 0 1-1.014.699c-.412.164-.888.247-1.428.247Z" fill="#fff"/><path d="M279.053 214.966h1.568l.788 1.014.776.904 1.461 1.832h-1.721l-1.006-1.236-.516-.733-1.35-1.781Zm4.725-1.33c0 .952-.18 1.762-.541 2.429-.358.668-.846 1.178-1.466 1.53-.616.35-1.309.524-2.079.524-.776 0-1.472-.176-2.088-.528-.617-.352-1.104-.862-1.462-1.53-.358-.668-.537-1.476-.537-2.425 0-.951.179-1.761.537-2.429.358-.667.845-1.176 1.462-1.525.616-.352 1.312-.529 2.088-.529.77 0 1.463.177 2.079.529.62.349 1.108.858 1.466 1.525.361.668.541 1.478.541 2.429Zm-1.87 0c0-.616-.093-1.136-.277-1.559-.182-.424-.439-.745-.772-.963-.332-.219-.721-.328-1.167-.328-.446 0-.835.109-1.168.328-.332.218-.591.539-.775.963-.182.423-.273.943-.273 1.559 0 .617.091 1.137.273 1.56.184.423.443.744.775.963.333.219.722.328 1.168.328.446 0 .835-.109 1.167-.328.333-.219.59-.54.772-.963.184-.423.277-.943.277-1.56Zm7.401 1.577v-3.758h1.815V218h-1.743v-1.189h-.068a1.937 1.937 0 0 1-.737.925c-.341.233-.757.349-1.249.349-.437 0-.822-.099-1.155-.298a2.06 2.06 0 0 1-.78-.848c-.184-.367-.278-.805-.281-1.317v-4.167h1.815v3.843c.003.387.107.692.312.916.204.225.478.337.822.337.219 0 .423-.05.614-.149.19-.102.343-.253.46-.452.119-.199.177-.444.175-.737Zm5.133 2.911c-.417 0-.789-.073-1.116-.218a1.795 1.795 0 0 1-.776-.652c-.187-.29-.281-.65-.281-1.082 0-.364.067-.669.2-.916.134-.247.316-.446.546-.597.23-.15.491-.264.784-.341.295-.077.605-.13.929-.162.381-.04.687-.076.92-.111.233-.036.402-.09.508-.161a.358.358 0 0 0 .157-.316v-.025c0-.27-.085-.479-.255-.627-.168-.148-.407-.221-.716-.221-.327 0-.587.072-.78.217a1.004 1.004 0 0 0-.384.537l-1.679-.137c.086-.397.253-.741.503-1.031.25-.292.573-.517.967-.673.398-.159.858-.239 1.381-.239.364 0 .712.043 1.044.128.335.085.632.217.891.396.261.179.467.41.618.691.15.278.226.612.226 1.001V218h-1.722v-.908h-.051a1.855 1.855 0 0 1-.422.542 1.959 1.959 0 0 1-.635.362 2.632 2.632 0 0 1-.857.128Zm.52-1.253c.267 0 .503-.053.708-.158.204-.108.365-.253.481-.435.117-.181.175-.387.175-.617v-.695a.968.968 0 0 1-.234.102 3.78 3.78 0 0 1-.329.081c-.122.023-.244.044-.366.064l-.332.047c-.213.031-.4.081-.559.149a.893.893 0 0 0-.37.277.676.676 0 0 0-.132.426c0 .247.089.436.268.567.182.128.412.192.69.192Zm6.39-7.598V218h-1.815v-8.727h1.815Zm1.454 8.727v-6.545h1.816V218h-1.816Zm.912-7.389a.986.986 0 0 1-.694-.269.867.867 0 0 1-.286-.652.85.85 0 0 1 .286-.643.977.977 0 0 1 .694-.273c.27 0 .5.091.691.273.193.179.29.393.29.643a.864.864 0 0 1-.29.652.974.974 0 0 1-.691.269Zm5.84.844v1.363h-3.942v-1.363h3.942Zm-3.047-1.569h1.815v6.103a.83.83 0 0 0 .077.392.416.416 0 0 0 .213.191.876.876 0 0 0 .324.056c.085 0 .17-.007.255-.021l.196-.039.286 1.351a5.36 5.36 0 0 1-.384.098c-.164.04-.365.064-.601.072-.437.018-.821-.041-1.15-.174a1.61 1.61 0 0 1-.763-.622c-.182-.282-.271-.637-.268-1.066v-6.341Zm5.35 10.569c-.23 0-.446-.019-.648-.056a2.335 2.335 0 0 1-.494-.132l.409-1.355c.213.065.405.101.575.106a.732.732 0 0 0 .448-.119c.127-.085.231-.23.311-.435l.106-.276-2.348-6.733h1.909l1.355 4.806h.069l1.367-4.806h1.922l-2.544 7.252a3.048 3.048 0 0 1-.498.921c-.208.264-.47.467-.789.609-.318.145-.701.218-1.15.218Z" fill="#fff"/><path d="M276.778 279.636c0 .952-.18 1.762-.541 2.429-.358.668-.846 1.178-1.466 1.53-.616.35-1.309.524-2.079.524-.776 0-1.472-.176-2.088-.528-.617-.352-1.104-.862-1.462-1.53-.358-.668-.537-1.476-.537-2.425 0-.951.179-1.761.537-2.429.358-.667.845-1.176 1.462-1.525.616-.352 1.312-.529 2.088-.529.77 0 1.463.177 2.079.529.62.349 1.108.858 1.466 1.525.361.668.541 1.478.541 2.429Zm-1.87 0c0-.616-.093-1.136-.277-1.559-.182-.424-.439-.745-.772-.963-.332-.219-.721-.328-1.167-.328-.446 0-.835.109-1.168.328-.332.218-.591.539-.775.963-.182.423-.273.943-.273 1.559 0 .617.091 1.137.273 1.56.184.423.443.744.775.963.333.219.722.328 1.168.328.446 0 .835-.109 1.167-.328.333-.219.59-.54.772-.963.184-.423.277-.943.277-1.56Zm3.203 6.819v-9h1.79v1.099h.081c.079-.176.194-.355.345-.537.153-.185.352-.338.597-.46.247-.125.554-.188.92-.188.477 0 .918.125 1.321.375.404.247.726.621.967 1.121.242.497.363 1.121.363 1.871 0 .73-.118 1.346-.354 1.849-.233.5-.551.879-.955 1.138-.4.256-.849.384-1.346.384-.352 0-.652-.059-.899-.175a1.86 1.86 0 0 1-.601-.439 2.221 2.221 0 0 1-.358-.541h-.056v3.503h-1.815Zm1.777-5.728c0 .389.054.729.162 1.019.108.29.264.515.469.677.204.159.453.239.746.239.295 0 .545-.081.75-.243.204-.165.359-.392.464-.682.108-.292.162-.629.162-1.01 0-.378-.053-.71-.158-.997a1.487 1.487 0 0 0-.464-.673 1.178 1.178 0 0 0-.754-.243c-.296 0-.546.078-.75.234a1.474 1.474 0 0 0-.465.665 2.876 2.876 0 0 0-.162 1.014Zm9.298-3.272v1.363h-3.941v-1.363h3.941Zm-3.046-1.569h1.815v6.103c0 .167.025.298.077.392a.416.416 0 0 0 .213.191.872.872 0 0 0 .324.056c.085 0 .17-.007.255-.021.085-.018.151-.03.196-.039l.286 1.351a5.36 5.36 0 0 1-.384.098c-.165.04-.365.064-.601.072-.437.018-.821-.041-1.15-.174a1.61 1.61 0 0 1-.763-.622c-.182-.282-.271-.637-.268-1.066v-6.341Zm4.229 8.114v-6.545h1.815V284h-1.815Zm.912-7.389a.987.987 0 0 1-.695-.269.87.87 0 0 1-.285-.652c0-.25.095-.464.285-.643a.978.978 0 0 1 .695-.273c.27 0 .5.091.69.273.193.179.29.393.29.643a.864.864 0 0 1-.29.652.97.97 0 0 1-.69.269Zm2.357 7.389v-6.545h1.731v1.154h.076c.137-.383.364-.686.682-.907.318-.222.699-.333 1.142-.333.449 0 .831.113 1.146.337.316.222.526.523.631.903h.068c.134-.375.375-.674.725-.899.352-.227.768-.341 1.248-.341.611 0 1.107.195 1.488.584.383.386.575.935.575 1.645V284h-1.811v-4.044c0-.364-.097-.636-.29-.818a1.015 1.015 0 0 0-.724-.273c-.33 0-.587.105-.772.315-.184.208-.277.482-.277.823V284h-1.76v-4.082c0-.321-.092-.577-.277-.767-.181-.191-.422-.286-.72-.286a1 1 0 0 0-.545.153c-.159.1-.286.241-.38.422-.093.179-.14.39-.14.631V284h-1.816Zm10.946 0v-6.545h1.815V284h-1.815Zm.912-7.389a.987.987 0 0 1-.695-.269.87.87 0 0 1-.285-.652c0-.25.095-.464.285-.643a.978.978 0 0 1 .695-.273c.27 0 .5.091.69.273.193.179.29.393.29.643a.864.864 0 0 1-.29.652.97.97 0 0 1-.69.269Zm7.803 2.71-1.662.102a.847.847 0 0 0-.183-.383.964.964 0 0 0-.371-.277 1.258 1.258 0 0 0-.541-.107c-.281 0-.518.06-.711.179-.194.117-.29.273-.29.469 0 .156.062.288.187.396.125.108.34.195.644.26l1.184.239c.637.131 1.111.341 1.424.631.312.289.469.67.469 1.142 0 .429-.127.805-.38 1.129-.25.324-.594.577-1.031.758-.435.179-.936.269-1.504.269-.867 0-1.557-.181-2.071-.541a2.107 2.107 0 0 1-.899-1.483l1.785-.094a.919.919 0 0 0 .392.605c.208.136.473.205.797.205.318 0 .574-.061.767-.184.196-.125.295-.285.298-.481a.501.501 0 0 0-.208-.405c-.137-.108-.347-.19-.631-.247l-1.134-.226c-.639-.128-1.115-.349-1.427-.665-.31-.315-.465-.717-.465-1.206 0-.42.114-.782.341-1.086.23-.304.553-.539.968-.704.417-.164.906-.247 1.465-.247.827 0 1.478.175 1.952.524.477.35.756.826.835 1.428Zm1.293 4.679v-6.545h1.73v1.154h.076c.137-.383.364-.686.682-.907.318-.222.699-.333 1.142-.333.449 0 .831.113 1.147.337.315.222.525.523.63.903h.068c.134-.375.375-.674.725-.899.352-.227.768-.341 1.248-.341.611 0 1.107.195 1.488.584.383.386.575.935.575 1.645V284h-1.811v-4.044c0-.364-.097-.636-.29-.818a1.015 1.015 0 0 0-.724-.273c-.33 0-.587.105-.772.315-.184.208-.277.482-.277.823V284h-1.76v-4.082c0-.321-.092-.577-.277-.767-.181-.191-.421-.286-.72-.286-.201 0-.383.051-.545.153-.159.1-.286.241-.379.422a1.34 1.34 0 0 0-.141.631V284h-1.815Z" fill="#fff"/><path d="M270.759 344v-8.727h3.443c.662 0 1.226.126 1.691.379.466.25.821.598 1.066 1.044.247.443.371.955.371 1.534 0 .58-.125 1.091-.375 1.534a2.59 2.59 0 0 1-1.087 1.036c-.472.247-1.043.37-1.713.37h-2.195v-1.478h1.897c.355 0 .647-.061.877-.183a1.21 1.21 0 0 0 .52-.516 1.61 1.61 0 0 0 .175-.763c0-.29-.058-.543-.175-.758a1.168 1.168 0 0 0-.52-.508c-.233-.122-.528-.183-.886-.183h-1.244V344h-1.845Zm7.735 0v-6.545h1.76v1.142h.068c.119-.407.32-.713.601-.921a1.58 1.58 0 0 1 .972-.315 2.612 2.612 0 0 1 .571.064v1.611a3.147 3.147 0 0 0-.767-.098c-.268 0-.506.058-.716.174a1.289 1.289 0 0 0-.495.477 1.385 1.385 0 0 0-.179.708V344h-1.815Zm7.563.128c-.662 0-1.235-.141-1.718-.422a2.89 2.89 0 0 1-1.112-1.185c-.261-.508-.392-1.098-.392-1.768 0-.676.131-1.267.392-1.773a2.865 2.865 0 0 1 1.112-1.185c.483-.284 1.056-.426 1.718-.426.662 0 1.233.142 1.713.426a2.85 2.85 0 0 1 1.116 1.185c.262.506.392 1.097.392 1.773 0 .67-.13 1.26-.392 1.768a2.873 2.873 0 0 1-1.116 1.185c-.48.281-1.051.422-1.713.422Zm.008-1.406c.301 0 .553-.086.755-.256.201-.173.353-.409.456-.707.105-.299.157-.638.157-1.019 0-.381-.052-.72-.157-1.018a1.594 1.594 0 0 0-.456-.708 1.12 1.12 0 0 0-.755-.26c-.304 0-.559.087-.767.26a1.598 1.598 0 0 0-.464.708 3.134 3.134 0 0 0-.154 1.018c0 .381.052.72.154 1.019a1.6 1.6 0 0 0 .464.707c.208.17.463.256.767.256Zm7.343 3.869c-.588 0-1.093-.081-1.513-.243-.418-.159-.75-.376-.997-.652a2.01 2.01 0 0 1-.482-.929l1.679-.226c.051.131.132.253.243.367.111.113.257.204.439.272.185.071.409.107.673.107.395 0 .72-.097.976-.29.259-.19.388-.51.388-.959v-1.197h-.077a1.717 1.717 0 0 1-.358.516 1.81 1.81 0 0 1-.613.396c-.25.102-.549.153-.895.153-.492 0-.939-.113-1.343-.341-.4-.23-.72-.581-.958-1.052-.236-.475-.354-1.074-.354-1.799 0-.741.121-1.36.362-1.857.242-.498.563-.87.963-1.117a2.491 2.491 0 0 1 1.325-.371c.367 0 .674.063.921.188.247.122.446.275.597.46.153.182.271.361.353.537h.068v-1.099h1.803v6.609c0 .557-.136 1.023-.409 1.398-.273.375-.651.656-1.134.843-.48.191-1.032.286-1.657.286Zm.038-4.048c.293 0 .54-.073.742-.218a1.38 1.38 0 0 0 .468-.63c.111-.276.166-.606.166-.989 0-.384-.054-.716-.161-.997a1.468 1.468 0 0 0-.469-.661 1.195 1.195 0 0 0-.746-.234c-.298 0-.55.081-.754.243a1.45 1.45 0 0 0-.465.665 2.83 2.83 0 0 0-.157.984c0 .378.052.705.157.98.108.273.263.484.465.635.204.148.456.222.754.222Zm4.607 1.457v-6.545h1.759v1.142h.069c.119-.407.319-.713.601-.921a1.58 1.58 0 0 1 .971-.315 2.586 2.586 0 0 1 .571.064v1.611a3.136 3.136 0 0 0-.767-.098c-.267 0-.506.058-.716.174a1.293 1.293 0 0 0-.494.477 1.385 1.385 0 0 0-.179.708V344h-1.815Zm7.588.128c-.673 0-1.253-.137-1.739-.409a2.8 2.8 0 0 1-1.116-1.168c-.261-.506-.392-1.104-.392-1.794 0-.673.131-1.264.392-1.773a2.902 2.902 0 0 1 1.104-1.189c.477-.284 1.036-.426 1.679-.426.431 0 .833.07 1.206.209.375.136.701.342.98.618.281.276.5.622.656 1.04.156.415.234.9.234 1.457v.499h-5.527v-1.125h3.818c0-.262-.056-.493-.17-.695a1.222 1.222 0 0 0-.473-.473 1.354 1.354 0 0 0-.695-.175c-.275 0-.52.064-.733.192-.21.125-.375.294-.494.507a1.44 1.44 0 0 0-.183.703v1.07c0 .324.06.604.179.84.122.235.294.417.515.545.222.128.485.192.789.192.202 0 .386-.029.554-.085a1.113 1.113 0 0 0 .703-.674l1.679.111c-.085.403-.26.756-.524 1.057a2.65 2.65 0 0 1-1.014.699c-.412.164-.888.247-1.428.247Zm9.635-4.807-1.662.102a.847.847 0 0 0-.183-.383.972.972 0 0 0-.371-.277 1.26 1.26 0 0 0-.541-.107c-.281 0-.519.06-.712.179-.193.117-.29.273-.29.469 0 .156.063.288.188.396.125.108.339.195.643.26l1.185.239c.636.131 1.111.341 1.423.631.313.289.469.67.469 1.142 0 .429-.126.805-.379 1.129-.25.324-.594.577-1.031.758-.435.179-.937.269-1.505.269-.866 0-1.557-.181-2.071-.541a2.11 2.11 0 0 1-.899-1.483l1.786-.094a.915.915 0 0 0 .392.605c.207.136.473.205.797.205.318 0 .573-.061.767-.184.196-.125.295-.285.298-.481a.502.502 0 0 0-.209-.405c-.136-.108-.346-.19-.631-.247l-1.133-.226c-.639-.128-1.115-.349-1.428-.665-.309-.315-.464-.717-.464-1.206 0-.42.113-.782.341-1.086.23-.304.552-.539.967-.704.418-.164.906-.247 1.466-.247.827 0 1.477.175 1.952.524.477.35.755.826.835 1.428Zm6.738 0-1.662.102a.847.847 0 0 0-.183-.383.964.964 0 0 0-.371-.277 1.258 1.258 0 0 0-.541-.107c-.281 0-.518.06-.712.179-.193.117-.289.273-.289.469 0 .156.062.288.187.396.125.108.34.195.644.26l1.184.239c.637.131 1.111.341 1.424.631.312.289.468.67.468 1.142 0 .429-.126.805-.379 1.129-.25.324-.594.577-1.031.758-.435.179-.936.269-1.504.269-.867 0-1.557-.181-2.071-.541a2.108 2.108 0 0 1-.9-1.483l1.786-.094a.919.919 0 0 0 .392.605c.207.136.473.205.797.205.318 0 .574-.061.767-.184.196-.125.295-.285.298-.481a.5.5 0 0 0-.209-.405c-.136-.108-.346-.19-.63-.247l-1.134-.226c-.639-.128-1.115-.349-1.427-.665-.31-.315-.465-.717-.465-1.206 0-.42.114-.782.341-1.086.23-.304.553-.539.967-.704.418-.164.907-.247 1.466-.247.827 0 1.478.175 1.952.524.477.35.756.826.835 1.428Z" fill="#fff"/></svg>